<?xml version="1.0" standalone="no"?>
<!DOCTYPE svg PUBLIC "-//W3C//DTD SVG 20010904//EN"
 "http://www.w3.org/TR/2001/REC-SVG-20010904/DTD/svg10.dtd">
<svg version="1.0" xmlns="http://www.w3.org/2000/svg"
 width="400.000000pt" height="400.000000pt" viewBox="0 0 400.000000 400.000000"
 preserveAspectRatio="xMidYMid meet">
<metadata>
Created by potrace 1.11, written by Peter Selinger 2001-2013
</metadata>
<g transform="translate(0.000000,400.000000) scale(0.100000,-0.100000)"
fill="#000000" stroke="none">
<path d="M1766 3845 c-343 -56 -620 -198 -867 -444 -225 -226 -363 -479 -430
-790 -26 -123 -36 -381 -20 -506 35 -269 138 -522 302 -745 41 -56 258 -281
633 -658 l571 -572 45 0 45 0 543 542 c551 551 618 622 711 760 107 160 179
330 227 533 26 111 28 135 28 330 0 180 -3 225 -22 311 -69 319 -205 568 -431
795 -227 226 -477 363 -790 430 -128 27 -417 35 -545 14z m474 -631 c193 -49
379 -169 505 -327 229 -286 274 -684 115 -1014 -41 -83 -133 -214 -189 -268
l-32 -29 -56 56 -56 56 65 72 c78 83 149 213 180 327 29 109 29 297 0 406 -32
118 -102 245 -184 332 -82 88 -138 130 -234 179 -119 60 -210 80 -354 80 -144
0 -235 -20 -354 -80 -96 -49 -152 -91 -234 -179 -82 -87 -152 -214 -184 -332
-29 -109 -29 -297 0 -406 31 -114 102 -244 180 -327 l65 -72 -56 -56 -56 -56
-32 29 c-17 17 -57 65 -90 108 -311 411 -238 1000 164 1322 236 189 540 254
837 179z m-125 -309 c187 -33 362 -166 443 -336 50 -106 66 -171 66 -279 0
-47 -6 -110 -13 -140 -21 -90 -84 -209 -147 -278 l-57 -63 -56 55 -57 56 48
51 c171 182 166 469 -11 647 -187 189 -475 189 -662 0 -177 -178 -182 -465
-11 -647 l48 -51 -57 -56 -56 -55 -57 63 c-63 69 -126 188 -147 278 -7 30 -13
93 -13 140 0 108 16 173 66 279 80 168 256 303 438 336 97 17 138 17 235 0z
m133 -1239 c179 -179 212 -216 212 -241 0 -25 -33 -63 -218 -247 -165 -165
-223 -218 -242 -218 -19 0 -77 53 -242 218 -183 182 -218 222 -218 246 0 24
33 62 198 229 207 209 244 240 277 231 11 -3 116 -101 233 -218z"/>
</g>
</svg>
